<?xml version="1.0" encoding="utf-8"?><svg viewBox="0 0 40 40" xmlns="http://www.w3.org/2000/svg" xmlns:xlink="http://www.w3.org/1999/xlink"><style>:root>svg{display:none}:root>svg:target{display:block}</style><svg viewBox="0 0 40 40" id="icon-application"><path d="M27.955 7.998l3.215 5.57-3.215 5.582H21.52l-3.212-5.582 3.212-5.57h6.435M16.784 14.438L20 20l-3.216 5.574H10.35L7.136 20l3.216-5.562h6.434M27.955 20.857l3.215 5.574-3.215 5.575H21.52l-3.212-5.574 3.212-5.573h6.435"/></svg><svg viewBox="0 0 40 40" id="icon-component"><path d="M19.28 19.997l-4.844-8.357-4.833 8.356 4.84 8.384zM20.363 19.37h9.673l-4.838-8.362h-9.684zM20.362 20.62l-4.837 8.384h9.673l4.84-8.383z"/></svg><svg viewBox="0 0 40 40" id="icon-mastercomponent"><path d="M25.198 11.008H14.802l-5.2 8.988 5.2 9.008h10.396l5.2-9.008-5.2-8.988zm2.31 7.988h-6.93l-3.464-5.988h6.93l3.465 5.988zm-12.13-4.993l3.467 5.994-3.467 6.006-3.467-6.006 3.47-5.994zm8.665 13H17.11l3.47-6.007h6.932l-3.47 6.008z"/></svg></svg>